<svg width="263" height="69" viewBox="0 0 263 69" fill="none" xmlns="http://www.w3.org/2000/svg">
<defs>
<linearGradient id="travel-ai-gradient-dash" x1="0%" y1="0%" x2="100%" y2="100%">
<stop offset="0%" stop-color="#38BDF8"/>
<stop offset="50%" stop-color="#4F7BE8"/>
<stop offset="100%" stop-color="#6D48D7"/>
</linearGradient>
</defs>
<path d="M18.7349 44.0978L8.49629 44.09C7.68848 45.7159 5.65955 46.6656 3.62593 46.3725C1.59231 46.0793 -0.0186237 44.5199 0.00016265 42.7924C0.018949 41.0649 1.51246 39.5406 3.48503 39.2006C5.62668 38.8332 7.73544 39.8142 8.52447 41.5535H18.8992C19.1106 40.846 19.2515 40.1347 19.6507 39.5367L21.4072 36.9103H13.362L9.5859 35.0265C8.2051 35.9606 6.39692 36.2185 4.73902 35.5189C3.29717 34.9092 2.26862 33.5804 2.40951 32.0952C2.60207 30.0081 4.73433 28.5229 7.14837 28.7105C9.62817 28.902 11.4317 30.7546 11.0606 32.8925L14.0477 34.3816L23.1403 34.3972L26.2306 29.9456L21.163 29.93L17.138 26.088C15.2547 26.8189 13.0567 26.4476 11.7463 25.1305C10.436 23.8133 10.2998 21.9725 11.535 20.5342C12.9252 18.9162 15.4895 18.4198 17.5419 19.4399C19.5943 20.46 20.3881 22.5431 19.2468 24.3488L22.5015 27.456L28.0482 27.4325L31.9229 21.9217L41.3442 8.62932C42.2413 7.363 43.2651 6.30383 44.5238 5.31501C46.0314 4.12687 47.8067 3.41945 49.8357 3.06379C53.2219 2.46972 56.5048 2.53616 59.9286 2.93091C63.0801 3.29439 65.9262 4.49816 67.6076 6.81192L73.1448 14.4293L78.4332 21.9412C75.1785 24.1299 71.9002 26.1466 68.2886 28.0774L58.0453 14.0424C56.3451 12.2836 53.2313 12.2367 51.4278 13.9173L45.5618 21.7575L32.8622 38.7316C32.4771 39.2436 32.2469 39.8377 32.1765 40.3731C32.0779 41.1196 32.5616 41.7684 33.3788 42.0381C34.196 42.3078 35.0931 42.3273 35.9948 42.1905C39.6629 41.6473 43.1618 40.9086 46.7218 39.9158C59.5435 36.3397 72.1116 30.5084 82.1153 22.9066C85.5861 20.2685 88.606 17.4232 91.6964 14.4176C90.2921 17.5717 88.3242 20.3505 85.8726 22.9418C81.223 27.8585 75.7515 32.0483 69.6318 35.6987C60.2198 41.3111 47.3747 46.4037 36.1921 48.8856C33.0642 49.5813 30.0348 50.1284 26.8177 50.3199C24.5351 50.4567 22.2761 49.7259 20.7873 48.3657C19.5098 47.1971 18.9556 45.7667 18.7443 44.1017L18.7349 44.0978ZM14.7944 21.2885C13.7471 21.5191 13.268 22.379 13.5029 23.0942C13.7612 23.8837 14.7475 24.3253 15.6492 24.1299C16.5509 23.9345 17.1756 23.1646 16.983 22.4337C16.767 21.6247 15.8511 21.0579 14.7991 21.2885H14.7944ZM6.23254 30.9539C5.1805 31.2158 4.72963 32.0835 5.08187 32.8143C5.43412 33.5452 6.32647 33.9087 7.16716 33.7093C8.14405 33.4788 8.66537 32.6893 8.40706 31.9271C8.14874 31.165 7.23761 30.7038 6.23723 30.9539H6.23254ZM3.93121 41.3854C2.87448 41.6277 2.41891 42.4446 2.696 43.2341C2.94962 43.9571 3.89364 44.3558 4.74841 44.1916C5.75348 44.004 6.2795 43.2497 6.06346 42.4563C5.84742 41.6629 4.97855 41.1431 3.92651 41.3815L3.93121 41.3854ZM69.1809 56.4287C70.8623 58.3321 73.0086 59.575 75.7233 60.2042C84.8863 62.3265 93.8004 56.6163 94.5566 48.823C94.7069 47.287 94.1997 45.9269 93.4999 44.5473L83.6793 30.1996C80.7627 32.6658 77.8837 34.9522 74.6524 37.0627L81.5001 46.9353C81.7396 47.7209 81.284 48.354 80.5279 48.8504C78.9498 49.7024 76.7706 49.4405 75.5072 48.2485L69.5191 40.4787C66.7669 42.0733 63.9912 43.5076 61.0276 44.9459L69.1762 56.4326L69.1809 56.4287Z" fill="url(#travel-ai-gradient-dash)"/>
<path d="M192.936 36.9266C192.03 36.9266 191.114 37.6028 191.114 38.2946V44.9271C191.105 45.8768 192.039 46.5491 193.157 46.5491H204.861C205.401 46.5491 205.875 46.8461 206.068 47.2018L206.923 48.7651C207.157 49.1911 207.035 49.6758 206.476 49.9259C206.04 50.1213 205.434 50.2268 204.87 50.2229L191.053 50.176C188.244 50.1682 185.976 48.132 185.985 45.8456L186.032 37.5364C186.046 35.246 188.338 33.4208 191.039 33.4169L203.414 33.3857C206.65 33.3778 208.853 35.3477 208.745 38.0054C208.693 39.2795 208.599 40.5106 207.538 41.5229C206.35 42.6563 204.682 43.1566 202.865 43.1527L194.726 43.1371C194.148 43.1371 193.866 42.8166 193.659 42.4414L192.885 41.0461C192.772 40.8467 192.823 40.3856 192.983 40.2019C193.124 40.0416 193.533 39.897 193.861 39.897L202.268 39.8814C203.292 39.8814 203.818 39.0684 203.785 38.3571C203.748 37.552 203.156 36.9188 202.141 36.9188H192.931L192.936 36.9266Z" fill="white"/>
<path d="M53.3865 68.2641C50.437 65.4579 47.8163 62.6009 45.6371 59.4234C44.8997 58.3486 44.3596 57.2386 44.2986 56.0153C44.0872 51.8255 48.1122 48.3744 53.0248 48.2259C57.9375 48.0774 62.3616 51.3135 62.4931 55.5814C62.465 57.1956 61.7699 58.5753 60.7413 59.9354C58.5574 62.8237 56.134 65.4696 53.3818 68.2641H53.3865ZM57.0028 55.218C56.721 53.3967 54.8095 52.3414 52.7618 52.615C50.902 52.8612 49.4178 54.405 49.7936 56.0817C50.1693 57.7584 52.0385 58.759 53.9735 58.501C55.7535 58.2626 57.2612 56.879 57.0075 55.2219L57.0028 55.218Z" fill="white"/>
<path d="M114.376 49.0848C114.376 49.7414 114.015 50.1713 113.259 50.1752L109.67 50.183C109.313 50.183 108.787 49.8586 108.787 49.5069V30.4457H100.118C99.4365 30.4457 98.9622 29.9572 98.9152 29.4491L98.9011 27.534C98.9011 26.9399 99.3896 26.5491 100.127 26.5491H123.244C123.92 26.5491 124.263 26.9282 124.483 27.3464L125.277 28.8394C125.484 29.2263 125.376 29.6172 125.028 29.9689C124.451 30.266 123.821 30.4536 123.117 30.4497H114.367V49.0887L114.376 49.0848Z" fill="white"/>
<path d="M161.854 35.7496C161.351 34.921 160.29 34.5849 160.605 33.9361C160.699 33.7407 161.126 33.5375 161.384 33.5375H163.484C164.916 33.7798 166.518 34.4637 167.227 35.691L172.868 45.4267L179.184 34.2331C179.485 33.7016 180.016 33.3968 180.72 33.4085L185.163 33.4437C185.553 33.4437 185.313 33.9752 185.21 34.1393L175.479 49.6595C175.225 50.066 174.676 50.2497 174.168 50.2418L171.59 50.1989C170.763 50.1832 170.162 49.5383 169.805 48.9482L161.854 35.7574V35.7496Z" fill="white"/>
<path d="M239.381 32.2641L230.335 49.4922C230.115 49.9143 229.894 50.2035 229.311 50.2113H224.183C224.051 50.2113 223.722 50.1605 223.704 50.0706L223.624 49.6485L232.045 34.2065L235.464 27.8828C236.009 26.8744 237.563 26.5344 238.719 26.5344L241.734 26.5266C242.589 26.5266 242.762 26.8392 243.072 27.4099L254.847 49.1756C254.969 49.4023 255.049 49.6954 254.974 49.84C254.898 49.9846 254.49 50.1996 254.297 50.1996H248.666L244.434 41.9295L239.376 32.2602L239.381 32.2641Z" fill="url(#travel-ai-gradient-dash)"/>
<path d="M262.995 49.0232V27.5389C262.995 27.2692 263.009 26.9331 262.873 26.8002C262.737 26.6673 262.295 26.5344 262.07 26.5344L258.327 26.5579C257.697 26.5579 257.378 27.0542 257.401 27.5193L257.509 29.5712L257.5 49.3828C257.5 49.629 257.542 49.8948 257.674 49.9964C257.782 50.0824 258.167 50.1801 258.317 50.1801L262.084 50.1566C263.033 50.1488 263 49.5313 263 49.0193L262.995 49.0232Z" fill="url(#travel-ai-gradient-dash)"/>
<path d="M160.905 50.1839C159.666 50.1722 158.289 49.4608 157.904 48.3939L154.297 38.4744C154.001 37.6693 153.001 37.0596 151.996 37.0596H142.847C142.143 37.0596 141.462 36.7313 141.462 36.0669V34.3198C141.457 33.8625 141.983 33.4209 142.57 33.4209L152.855 33.4326C155.462 33.4326 157.665 34.7419 158.754 36.6609L159.783 39.1584L163.132 48.1203L163.86 49.4335C163.925 49.5507 163.911 49.8869 163.827 49.9924C163.742 50.0979 163.451 50.2073 163.282 50.2034L160.91 50.1839H160.905Z" fill="white"/>
<path d="M61.7887 30.595C58.3085 32.127 54.9786 33.3699 51.4938 34.6401C48.5866 35.7306 45.8062 36.7467 42.4904 37.4737L52.109 24.1188L54.2084 21.6526C54.3164 21.5236 54.7955 21.5705 54.9552 21.6956L57.8764 25.3382L61.784 30.595H61.7887Z" fill="white"/>
<path d="M215.668 50.1753L212.136 50.1831C211.957 50.1831 211.596 49.9916 211.441 49.8431V28.7496L211.154 27.7608C211.023 27.2996 211.38 26.6078 212.033 26.6039L216.029 26.5804C216.222 26.5804 216.565 26.8892 216.565 27.0885L216.588 49.2685C216.588 49.761 216.278 50.0502 215.658 50.1792L215.668 50.1753Z" fill="white"/>
<path d="M129.044 37.1533C127.889 37.1572 126.94 38.0093 126.94 38.9004L126.964 49.0465C126.964 49.6484 126.724 50.176 125.818 50.176H122.53C122.182 50.18 121.764 49.8282 121.769 49.5233L121.901 37.8099C121.929 35.3399 124.517 33.456 127.405 33.4443L137.714 33.4013C137.986 33.4013 138.386 33.6905 138.475 33.8703C138.592 34.1048 138.559 34.5425 138.419 34.7653L137.371 36.4381C137.15 36.7938 136.624 37.1143 136.075 37.1182L129.035 37.1494L129.044 37.1533Z" fill="white"/>
<path d="M92.8141 13.0266C92.4948 13.0891 92.2177 13.14 92.0815 13.1048C91.9124 13.0657 91.9265 12.6592 92.0956 12.4208L88.9911 11.2561L89.9633 10.0953L93.11 10.2751L96.1064 7.25003L88.3477 4.76822L89.1884 3.1736L99.5913 4.02562L102.499 1.69623C103.475 0.910651 104.682 0.402563 105.974 0C106.42 0.0977094 107.096 0.637065 106.984 0.996635C106.547 2.43101 105.528 3.52144 104.41 4.58452L102.541 6.36283L104.119 14.9222C103.508 15.2935 102.973 15.5905 102.235 15.8797L98.8493 9.44654L95.2564 11.9635L95.8622 14.672L94.5425 15.3521L92.8188 13.0305L92.8141 13.0266Z" fill="white"/>
<path d="M153.997 46.8726C154.363 46.8726 154.838 47.1619 154.96 47.3807L155.97 49.2216C156.2 49.6398 155.735 50.2026 155.11 50.2026H143.035C141.344 50.1948 139.804 49.3896 138.963 48.264C138.31 47.3885 138.409 46.4584 138.343 45.4852C138.235 43.8163 138.836 42.2569 140.588 41.3267C141.49 40.8459 142.608 40.416 143.744 40.416L151.973 40.4004C152.522 40.4004 152.931 40.7404 153.114 41.1L153.936 42.6985C154.161 43.1401 153.612 43.7225 152.987 43.7225L144.731 43.7381C143.665 43.7381 143.092 44.6058 143.115 45.3445C143.148 46.2864 143.89 46.8726 145.003 46.8726H153.992H153.997Z" fill="white"/>
</svg>
